<?xml version="1.0" standalone="no"?>
<!DOCTYPE svg PUBLIC "-//W3C//DTD SVG 20010904//EN"
 "http://www.w3.org/TR/2001/REC-SVG-20010904/DTD/svg10.dtd">
<svg version="1.0" xmlns="http://www.w3.org/2000/svg"
 width="700.000000pt" height="700.000000pt" viewBox="0 0 700.000000 700.000000"
 preserveAspectRatio="xMidYMid meet">
<metadata>
Created by potrace 1.11, written by Peter Selinger 2001-2013
</metadata>
<g transform="translate(0.000000,700.000000) scale(0.100000,-0.100000)"
fill="#000000" stroke="none">
<path d="M3278 6995 c-1 -1 -42 -5 -89 -9 -47 -4 -95 -8 -105 -10 -10 -2 -48
-7 -84 -12 -36 -4 -67 -8 -70 -9 -11 -3 -99 -21 -155 -31 -279 -50 -720 -217
-995 -377 -47 -27 -101 -58 -120 -69 -141 -80 -499 -356 -492 -380 1 -5 -1 -7
-6 -4 -10 6 -183 -162 -283 -275 -367 -414 -638 -926 -773 -1464 -21 -84 -32
-138 -61 -295 -1 -8 -6 -37 -9 -65 -4 -27 -9 -66 -11 -85 -27 -200 -27 -678
-1 -817 2 -10 7 -43 10 -74 4 -31 9 -67 11 -80 3 -13 7 -39 10 -58 2 -18 7
-41 9 -50 3 -9 7 -27 10 -41 49 -284 200 -688 374 -1000 109 -197 324 -499
436 -616 287 -298 425 -418 666 -578 395 -262 776 -423 1230 -520 63 -13 134
-27 157 -30 22 -3 52 -8 65 -10 154 -35 732 -42 920 -11 13 2 70 11 128 20 58
9 125 21 150 26 25 6 56 13 70 15 61 11 290 78 402 118 172 62 234 88 383 163
782 391 1373 1032 1695 1838 102 255 192 594 215 815 4 30 8 61 10 68 25 77
25 791 0 832 -2 3 -6 30 -9 60 -3 30 -8 64 -10 75 -2 11 -11 61 -21 110 -222
1190 -1087 2206 -2232 2621 -258 94 -564 167 -793 190 -30 3 -71 8 -90 10 -38
6 -536 14 -542 9z m-1253 -1719 c384 -18 734 -131 991 -321 124 -92 250 -227
319 -340 l35 -59 0 -1328 c0 -730 -2 -1328 -4 -1328 -3 0 -22 17 -43 38 -205
204 -560 385 -878 448 -170 34 -311 50 -515 59 -112 4 -150 20 -188 78 l-27
41 0 1292 c-1 1248 0 1295 18 1333 11 23 34 50 55 63 33 21 95 37 117 32 6 -2
60 -5 120 -8z m3187 -24 c20 -12 44 -39 54 -60 18 -35 19 -92 19 -1333 l0
-1295 -27 -41 c-36 -55 -84 -76 -183 -79 -125 -4 -270 -16 -340 -28 -16 -3
-50 -8 -75 -11 -73 -10 -238 -51 -340 -85 -217 -73 -490 -229 -610 -350 -3 -3
-22 -21 -43 -40 l-37 -34 2 1339 3 1340 60 85 c171 242 430 423 751 525 82 26
105 32 159 42 17 3 37 9 46 14 9 4 18 6 21 4 2 -2 44 2 93 11 50 8 142 17 205
20 63 4 116 8 118 9 9 8 95 -15 124 -33z m-3761 -551 c1 -3 2 -487 3 -1076 1
-588 6 -1086 10 -1105 12 -58 66 -156 110 -200 95 -97 177 -129 351 -135 158
-6 252 -15 405 -40 110 -18 320 -86 437 -140 102 -48 265 -152 327 -209 42
-40 41 -40 -24 -25 -200 47 -385 64 -695 64 -210 -1 -349 -7 -458 -21 -18 -2
-52 -6 -77 -9 -25 -3 -54 -7 -65 -9 -12 -2 -48 -8 -80 -12 -33 -4 -62 -8 -65
-9 -3 -1 -18 -4 -35 -8 -16 -4 -46 -9 -65 -13 -19 -3 -39 -7 -45 -8 -146 -33
-206 -31 -255 11 -68 57 -63 -55 -64 1448 l-1 1360 23 47 c26 52 54 75 109 86
43 9 152 11 154 3z m4293 -16 c21 -10 46 -34 59 -56 13 -22 25 -37 28 -35 2 2
4 -615 3 -1372 0 -1235 -2 -1380 -16 -1407 -23 -43 -58 -72 -103 -88 -35 -12
-50 -12 -120 4 -44 9 -98 20 -120 23 -22 4 -47 8 -55 11 -24 7 -70 14 -130 21
-30 3 -57 7 -60 9 -3 2 -37 6 -75 10 -39 4 -78 9 -88 11 -138 25 -758 25 -882
-1 -11 -2 -42 -7 -68 -10 -42 -5 -83 -12 -167 -30 -14 -2 -38 -7 -55 -11 l-30
-6 40 37 c107 96 323 219 484 274 63 22 229 65 286 75 17 3 39 8 50 10 11 2
47 7 80 10 33 4 78 9 100 12 22 2 94 6 160 9 66 3 127 7 135 9 156 34 283 149
327 296 15 50 17 161 19 1130 1 591 2 1078 3 1081 2 13 160 0 195 -16z"/>
</g>
</svg>
