<svg viewBox="0 0 600 600" xmlns="http://www.w3.org/2000/svg"><path d="M496.92 379.23l-3.664 44.152-44.507-19.562c-4.875.808-9.859 1.312-14.978 1.312-21.427 0-41.024-7.398-56.213-19.624 22.95-26.9 36.731-61.27 36.731-98.738 0-15.396-2.365-30.258-6.694-44.308a91.097 91.097 0 0126.176-3.822c48.191 0 87.256 37.27 87.256 83.246 0 22.25-9.205 42.41-24.106 57.344m-246.37 40.242c-10.84 0-21.376-1.214-31.506-3.446l-60.972 29.836-3.571-62.956c-26.81-24.254-43.557-58.532-43.557-96.554 0-73.522 62.503-133.12 139.61-133.12 77.102 0 139.61 59.6 139.61 133.12 0 73.522-62.505 133.12-139.61 133.12m323.07-344.26c-90.455-18.448-183.78-2.654-273.61 19.78 0 0-26.27-8.526-37.23-11.538-59.898-21.928-124.22-35.5-185.32-30.464-11.135.908-16.968 9.21-17.146 26.324-1.005 97.108-2.174 197.83-3.339 298.26l-1.968 15.164-5-315.67s.047-5.712 2.21-12.438c-12.51 2.224-22.338 12.038-22.491 26.634-1.152 111.39-2.315 223.79-3.49 337.09l-1.229 16.126-5.001-346.72s-1.537-10.514 1.502-21.55C9.25 81.2.02 94.748.018 108.234v397.524c0 14.168 10.906 22.944 24.557 20.304 86.729-16.856 180.58-1.14 275.42 21.984.006.005.013.005.02.007v-.005s183.16-40.492 273.61-22.042c14.625 2.97 26.388-6.429 26.388-21.757V108.94c0-15.308-11.764-30.752-26.388-33.722" fill="#9e0201" fill-rule="evenodd"/></svg>