<svg viewBox="0 0 375 500" xmlns="http://www.w3.org/2000/svg"><path d="M0 0v500h375V0H0zm282.93 144.95h.025a9.7 9.7 0 016.893 2.857 9.8 9.8 0 012.896 6.985v147.56c0 5.41-4.419 9.824-9.851 9.838-22.906.054-61.282 4.828-87.756 32.533v-154.43c0-1.835.467-3.557 1.351-4.983 21.73-34.993 63.485-40.31 86.441-40.365zm-190.89.002h.023c22.957.054 64.713 5.37 86.441 40.363.885 1.426 1.354 3.148 1.354 4.982v154.43c-26.474-27.705-64.85-32.479-87.756-32.533-5.433-.014-9.854-4.426-9.854-9.838v-147.56a9.8 9.8 0 012.897-6.984 9.698 9.698 0 016.894-2.855zM59.837 178.98h7.135v123.37c0 13.816 11.258 25.082 25.094 25.115 19.429.046 51.463 3.844 74.15 25.316-39.237-9.607-80.604-3.363-104.18 2.01a9.813 9.813 0 01-8.344-1.9 9.785 9.785 0 01-3.697-7.688v-156.39c0-5.425 4.416-9.838 9.84-9.838zm248.19 0h7.135c5.425 0 9.84 4.413 9.84 9.838v156.39a9.782 9.782 0 01-3.698 7.685 9.822 9.822 0 01-8.343 1.903c-23.574-5.372-64.941-11.617-104.18-2.01 22.688-21.473 54.724-25.272 74.152-25.318 13.837-.034 25.094-11.301 25.094-25.117v-123.37z" fill="#dee2e6"/></svg>