<svg xmlns="http://www.w3.org/2000/svg" width="1960.052" height="600"><path style="line-height:normal;font-variant-ligatures:normal;font-variant-position:normal;font-variant-caps:normal;font-variant-numeric:normal;font-variant-alternates:normal;font-variant-east-asian:normal;font-feature-settings:normal;font-variation-settings:normal;text-indent:0;text-align:start;text-decoration-line:none;text-decoration-style:solid;text-decoration-color:#000;text-transform:none;text-orientation:mixed;white-space:normal;shape-padding:0;shape-margin:0;inline-size:0;isolation:auto;mix-blend-mode:normal;solid-color:#000;solid-opacity:1" d="M500 76.395v447.21A300 300 0 00600 300 300 300 0 00500 76.395z" color="#000" font-weight="400" font-family="sans-serif" overflow="visible" fill="#6f42c1"/><path d="M400 17.158v133.686c14.51-2.787 28.077-3.616 38.813-3.64h.033c3.783 0 7.342 1.473 10.029 4.153a14.256 14.256 0 014.213 10.16V376.15c0 7.871-6.429 14.29-14.332 14.31-10.955.027-24.35.807-38.756 3.259v22.6c14.432-2.775 27.972-3.612 38.81-3.637 20.126-.049 36.5-16.436 36.5-36.532V196.701h10.38c7.89 0 14.31 6.42 14.31 14.31V76.396a300 300 0 00-100-59.237zm100 421.326a14.23 14.23 0 01-5.379 11.18 14.274 14.274 0 01-12.137 2.766c-20.38-4.646-49.903-9.737-82.484-10.17v140.582a300 300 0 00100-59.237z" fill="#007bff"/><path d="M300 0v600a300 300 0 00100-17.158V442.26c-22.236-.296-45.894 1.577-69.045 7.246 20.343-19.253 45.849-28.73 69.045-33.188v-22.6c-29.405 5.006-63.042 17.016-88.889 44.063V213.162c0-2.668.68-5.174 1.967-7.248 21.445-34.536 56.296-49.187 86.922-55.07V17.158A300 300 0 00300 0z" fill="#28a745"/><path d="M300 0a300 300 0 00-100 17.158v133.684c30.625 5.883 65.474 20.537 86.92 55.072 1.286 2.074 1.967 4.58 1.967 7.248v224.62c-25.846-27.047-59.482-39.057-88.887-44.063v22.601c23.196 4.46 48.703 13.936 69.047 33.19-23.152-5.669-46.811-7.542-69.047-7.246v140.578A300 300 0 00300 600z" fill="#ffc107"/><path d="M200 17.158a300 300 0 00-100 59.237v134.617c0-7.891 6.42-14.31 14.31-14.31h10.38V376.15c0 20.096 16.373 36.484 36.5 36.534 10.839.025 24.378.862 38.81 3.636V393.72c-14.407-2.453-27.802-3.234-38.758-3.26-7.901-.02-14.33-6.44-14.33-14.309V161.516a14.25 14.25 0 014.213-10.159 14.113 14.113 0 0110.027-4.156h.036c10.735.026 24.301.853 38.812 3.64zm-100 421.33v85.117a300 300 0 00100 59.237V442.264c-32.581.433-62.104 5.525-82.484 10.17a14.286 14.286 0 01-12.137-2.766 14.23 14.23 0 01-5.379-11.18z" fill="#fd7e14"/><path d="M100 76.395A300 300 0 000 300a300 300 0 00100 223.605V211.012z" fill="#dc3545"/><ellipse cx="-1488.796" cy="-393.69" rx="173.174" ry="164.453" fill="none"/><ellipse cx="-1424.012" cy="-271.596" rx="272.842" ry="221.762" fill="none"/><path fill="none" d="M-1517.451-465.95h346.348V9.967h-346.348z"/><ellipse cx="-1517.451" cy="-465.95" rx="299.005" ry="194.353" fill="none"/><ellipse cx="-1457.65" cy="-384.969" rx="276.58" ry="255.4" fill="none"/><path d="M842.579 450c54.422 0 89.505-23.838 107.496-42.279 32.833-32.834 38.68-72.863 38.68-103.898 0-55.322-21.139-89.055-40.48-108.396C904.649 152.25 840.78 150 815.593 150H700v300zm-34.633-208.246h11.694c12.594 0 29.685 2.249 42.729 14.393 9.895 9.445 17.541 25.637 17.541 44.977 0 18.89-7.196 34.183-17.541 43.179-15.293 13.493-33.733 13.943-46.327 13.943h-8.096z" fill="#fd7e14"/><path d="M1139.044 450v-96.702c0-9.895-.45-17.99-2.25-28.336h2.25c4.048 8.996 8.995 19.79 14.392 28.786L1208.31 450h125.937l-103.448-152.924L1324.35 150H1206.51l-51.724 97.151c-5.398 9.895-9.446 16.642-15.742 33.734h-2.25c1.8-13.494 2.25-24.288 2.25-37.782V150h-104.348v300z" fill="#ffc107"/><path d="M1510.213 450c54.423 0 89.506-23.838 107.497-42.279 32.833-32.834 38.68-72.863 38.68-103.898 0-55.322-21.14-89.055-40.48-108.396C1572.283 152.25 1508.414 150 1483.227 150h-115.592v300zm-34.632-208.246h11.694c12.594 0 29.685 2.249 42.728 14.393 9.896 9.445 17.542 25.637 17.542 44.977 0 18.89-7.197 34.183-17.542 43.179-15.292 13.493-33.733 13.943-46.326 13.943h-8.096z" fill="#28a745"/><path d="M1702.33 450h152.474c21.14 0 51.724-2.699 76.912-22.939 20.69-16.641 28.336-37.33 28.336-60.72 0-21.588-7.197-37.78-22.04-52.173-9.445-8.996-19.34-14.843-31.484-17.991l.45-2.699c10.795-4.048 20.24-11.244 26.087-18.44 11.244-13.944 12.594-30.135 12.594-41.38 0-33.733-15.742-51.724-22.939-58.47-23.838-22.49-63.868-25.188-89.505-25.188H1702.33zm100.75-228.036h17.092c4.048 0 13.943.45 19.79 4.948 2.698 2.248 6.746 7.196 6.746 15.742 0 8.096-3.148 13.043-5.847 15.742-4.947 4.947-14.393 6.746-20.69 6.746h-17.09zm0 106.147h23.388c5.848 0 16.642.45 23.839 6.297 4.947 4.048 8.096 10.345 8.096 17.99 0 9.896-4.948 16.642-10.345 20.24-7.197 4.498-16.642 4.948-22.939 4.948h-22.039z" fill="#007bff"/><path fill="#dc3545" d="M700 0h1260.052v75H700z"/><path fill="#6f42c1" d="M700 525h1260.052v75H700z"/></svg>