<svg viewBox="0 0 600 600" xmlns="http://www.w3.org/2000/svg"><path d="M500 76.395v447.214a300 300 0 00100-223.61 300 300 0 00-100-223.61z" color="#000" fill="#6f42c1" style="font-feature-settings:normal;font-variant-alternates:normal;font-variant-caps:normal;font-variant-east-asian:normal;font-variant-ligatures:normal;font-variant-numeric:normal;font-variant-position:normal;font-variation-settings:normal;inline-size:0;isolation:auto;mix-blend-mode:normal;shape-margin:0;shape-padding:0;text-decoration-color:#000;text-decoration-line:none;text-decoration-style:solid;text-indent:0;text-orientation:mixed;text-transform:none;white-space:normal"/><path d="M400 17.158v133.69c14.51-2.787 28.077-3.615 38.812-3.64h.033c3.783 0 7.343 1.474 10.03 4.154a14.256 14.256 0 014.212 10.16v214.63c0 7.87-6.429 14.29-14.332 14.31-10.955.027-24.35.806-38.756 3.258v22.6c14.432-2.774 27.972-3.61 38.811-3.636 20.125-.049 36.5-16.436 36.5-36.531v-179.45h10.38c7.889 0 14.31 6.42 14.31 14.31V76.394a300 300 0 00-100-59.235zm100 421.33a14.23 14.23 0 01-5.379 11.18 14.274 14.274 0 01-12.137 2.766c-20.38-4.646-49.903-9.737-82.484-10.17v140.58a300 300 0 00100-59.236v-85.121z" fill="#007bff"/><path d="M300 0v600a300 300 0 00100-17.158v-140.58c-22.236-.296-45.894 1.578-69.045 7.246 20.343-19.253 45.849-28.729 69.045-33.188v-22.6c-29.405 5.006-63.042 17.015-88.889 44.062v-224.62c0-2.668.68-5.174 1.967-7.248 21.445-34.536 56.296-49.188 86.922-55.07V17.154A300 300 0 00300-.004z" fill="#28a745"/><path d="M300 0a300 300 0 00-100 17.158v133.68c30.625 5.883 65.474 20.537 86.92 55.072 1.286 2.074 1.967 4.58 1.967 7.248v224.62c-25.845-27.047-59.482-39.057-88.887-44.062v22.602c23.196 4.46 48.703 13.935 69.047 33.189-23.152-5.668-46.811-7.542-69.047-7.246v140.58a300 300 0 00100 17.158v-600z" fill="#ffc107"/><path d="M200 17.158a300 300 0 00-100 59.236v134.62c0-7.89 6.42-14.311 14.311-14.311h10.379v179.45c0 20.096 16.374 36.483 36.5 36.533 10.839.026 24.378.862 38.811 3.637V393.72c-14.407-2.453-27.802-3.234-38.758-3.26-7.902-.02-14.33-6.44-14.33-14.31v-214.63a14.25 14.25 0 014.213-10.157 14.113 14.113 0 0110.027-4.156h.035c10.735.025 24.302.853 38.812 3.64V17.168zm-100 421.33v85.117a300 300 0 00100 59.236v-140.58c-32.581.433-62.104 5.525-82.484 10.17a14.287 14.287 0 01-12.137-2.766 14.231 14.231 0 01-5.379-11.18z" fill="#fd7e14"/><path d="M100 76.395A300 300 0 000 300.005a300 300 0 00100 223.61V76.398z" fill="#dc3545"/><ellipse cx="-1488.8" cy="-393.69" rx="173.17" ry="164.45" fill="none"/><ellipse cx="-1424" cy="-271.6" rx="272.84" ry="221.76" fill="none"/><path fill="none" d="M-1517.5-465.95h346.35V9.97h-346.35z"/><ellipse cx="-1517.5" cy="-465.95" rx="299.01" ry="194.35" fill="none"/><ellipse cx="-1457.7" cy="-384.97" rx="276.58" ry="255.4" fill="none"/></svg>