<svg viewBox="0 0 600 600" xmlns="http://www.w3.org/2000/svg"><path d="M0 300a300 300 0 00100 223.61V76.4A300 300 0 000 300.01z" fill="#dc3545"/><path d="M100 76.395v447.21a300 300 0 00100 59.236v-100.58c-10.044-3.577-15.836-11.622-15.836-27.791 0-16.129 5.83-31.194 15.836-44.186v-107.89c-.054-.052-.128-.067-.182-.121l-33.44-33.441-33.442 33.44c-2.171 2.174-5.019 3.259-7.863 3.259s-5.692-1.088-7.863-3.258c-4.343-4.34-4.343-11.382 0-15.725l33.44-33.44-33.44-33.444c-4.343-4.34-4.343-11.38 0-15.723a11.088 11.088 0 017.863-3.258c2.846 0 5.692 1.087 7.863 3.258l33.441 33.44 33.441-33.44c.054-.054.128-.069.182-.121V17.16a300 300 0 00-100 59.236z" fill="#fd7e14"/><path d="M200 235.2l-17.898 17.9L200 270.996v-35.797z" fill="#fd7e14"/><path d="M200 482.26v100.58a300 300 0 00100 17.158v-121.38h-.004c-35.996 0-68.168 7.708-89.414 5.81-3.925-.349-7.447-1.057-10.582-2.173zM200 17.158v186.66c4.354-4.183 11.253-4.168 15.543.121 4.343 4.34 4.343 11.38 0 15.723L200 235.207v35.797l15.543 15.543c4.343 4.34 4.343 11.382 0 15.725a11.078 11.078 0 01-7.861 3.258c-2.776 0-5.532-1.071-7.682-3.137v107.89c20.087-26.082 57.295-43.656 99.998-43.656H300V-.003a300 300 0 00-100 17.158z" fill="#ffc107"/><path d="M400 17.158v186.66c.052.05.123.064.174.115l33.44 33.441 33.442-33.44c4.342-4.344 11.379-4.344 15.723 0 4.342 4.342 4.342 11.381 0 15.722L449.338 253.1l33.44 33.441c4.344 4.34 4.344 11.382 0 15.725a11.078 11.078 0 01-7.86 3.258 11.086 11.086 0 01-7.864-3.258l-33.44-33.44-33.444 33.44c-.05.05-.119.064-.17.114v107.91c10.002 12.99 15.83 28.053 15.83 44.18 0 16.166-5.788 24.213-15.83 27.79v100.58a300 300 0 00100-59.235V76.394a300 300 0 00-100-59.236z" fill="#007bff"/><path d="M300 478.62V600a300 300 0 00100-17.158v-100.58c-3.137 1.118-6.66 1.824-10.588 2.174-21.245 1.897-53.417-5.81-89.412-5.81zM300 0v366.63c42.707 0 79.915 17.578 100 43.664v-107.91c-2.151 2.073-4.912 3.144-7.691 3.144a11.094 11.094 0 01-7.864-3.257c-4.343-4.34-4.343-11.382 0-15.725L400 270.99v-35.775l-15.555-15.555c-4.343-4.34-4.343-11.38 0-15.723a11.087 11.087 0 017.864-3.258h.002c2.778 0 5.538 1.072 7.689 3.142V17.162A300 300 0 00300 .004z" fill="#28a745"/><path d="M400 270.99l17.887-17.887L400 235.214v35.775z" fill="#007bff"/><path d="M500 76.395v447.21a300 300 0 00100-223.61 300 300 0 00-100-223.61z" fill="#6f42c1"/><path d="M299.05 454.49c.315.338.636.668.947 1.016v-.004c-.31-.347-.631-.674-.947-1.012z" fill="#2ba5f7"/><path d="M299.05 454.49c.315.338.636.668.947 1.016v-.004c-.31-.347-.631-.674-.947-1.012zM298.07 453.44l-.002.002c.331.34.654.7.98 1.049-.325-.35-.647-.71-.978-1.051z" fill="#2ba5f7"/><path d="M299.05 454.49c.315.338.636.668.947 1.016v-.004c-.31-.347-.631-.674-.947-1.012zM298.07 453.44l-.002.002c.331.34.654.7.98 1.049-.325-.35-.647-.71-.978-1.051z" fill="#2ba5f7"/><path d="M299.05 454.49c.315.338.634.668.945 1.016v-.004c-.31-.347-.63-.675-.945-1.012z" fill="#2ba5f7"/><path d="M299.05 454.49c.315.338.636.668.947 1.016v-.004c-.31-.347-.631-.674-.947-1.012z" fill="#2ba5f7"/><path d="M299.05 454.49c.315.338.636.668.947 1.016v-.004c-.31-.347-.631-.674-.947-1.012z" fill="#2ba5f7"/></svg>