<svg viewBox="0 0 600 600" xmlns="http://www.w3.org/2000/svg"><path d="M299.97 7C134.33 7 0 141.31 0 307.01c0 132.53 85.951 244.98 205.16 284.67 15.01 2.744 20.48-6.52 20.48-14.476 0-7.127-.258-25.986-.405-51.014-83.446 18.122-101.05-40.222-101.05-40.222-13.647-34.66-33.316-43.887-33.316-43.887-27.238-18.601 2.063-18.233 2.063-18.233 30.111 2.118 45.95 30.922 45.95 30.922 26.76 45.839 70.223 32.598 87.314 24.918 2.726-19.374 10.48-32.598 19.043-40.093-66.613-7.588-136.65-33.316-136.65-148.27 0-32.763 11.695-59.523 30.885-80.5-3.094-7.588-13.389-38.086 2.947-79.395 0 0 25.176-8.066 82.489 30.738 23.923-6.649 49.596-9.964 75.104-10.092 25.489.124 51.143 3.444 75.104 10.092 57.276-38.804 82.415-30.738 82.415-30.738 16.373 41.309 6.077 71.807 3.002 79.395 19.227 20.977 30.83 47.736 30.83 80.5 0 115.25-70.15 140.61-136.97 148.03 10.755 9.264 20.35 27.57 20.35 55.563 0 40.093-.37 72.451-.37 82.286 0 8.03 5.415 17.367 20.628 14.439 119.12-39.762 205-152.12 205-284.63 0-165.7-134.33-300.01-300.03-300.01" fill="#1b1817" fill-rule="evenodd"/></svg>