<?xml version="1.0" encoding="UTF-8" standalone="no"?>
<svg
   xmlns:dc="http://purl.org/dc/elements/1.1/"
   xmlns:cc="http://creativecommons.org/ns#"
   xmlns:rdf="http://www.w3.org/1999/02/22-rdf-syntax-ns#"
   xmlns:svg="http://www.w3.org/2000/svg"
   xmlns="http://www.w3.org/2000/svg"
   xmlns:sodipodi="http://sodipodi.sourceforge.net/DTD/sodipodi-0.dtd"
   xmlns:inkscape="http://www.inkscape.org/namespaces/inkscape"
   inkscape:version="1.0beta2 (2b71d25, 2019-12-03)"
   sodipodi:docname="github.svg"
   version="1.1"
   id="svg2"
   xml:space="preserve"
   width="600"
   height="600"
   viewBox="0 0 600 600"><sodipodi:namedview
     inkscape:current-layer="svg2"
     inkscape:window-maximized="1"
     inkscape:window-y="23"
     inkscape:window-x="0"
     inkscape:cy="305.83819"
     inkscape:cx="427.37468"
     inkscape:zoom="0.39376365"
     showgrid="false"
     id="namedview106"
     inkscape:window-height="690"
     inkscape:window-width="1280"
     inkscape:pageshadow="2"
     inkscape:pageopacity="0"
     guidetolerance="10"
     gridtolerance="10"
     objecttolerance="10"
     borderopacity="1"
     inkscape:document-rotation="0"
     bordercolor="#666666"
     pagecolor="#ffffff" /><metadata
     id="metadata8"><rdf:RDF><cc:Work
         rdf:about=""><dc:format>image/svg+xml</dc:format><dc:type
           rdf:resource="http://purl.org/dc/dcmitype/StillImage" /><dc:title></dc:title></cc:Work></rdf:RDF></metadata><defs
     id="defs6" /><path
     inkscape:connector-curvature="0"
     d="M 299.97231,7 C 134.33189,7 0,141.31339 0,307.00895 c 0,132.52702 85.950971,244.97982 205.16277,284.66788 15.00972,2.74415 20.4795,-6.51953 20.4795,-14.47557 0,-7.12728 -0.2583,-25.98599 -0.40471,-51.01437 -83.44633,18.1221 -101.05281,-40.22219 -101.05281,-40.22219 -13.64683,-34.66042 -33.315949,-43.88722 -33.315949,-43.88722 -27.238401,-18.60083 2.06277,-18.23259 2.06277,-18.23259 30.111429,2.11802 45.949759,30.92178 45.949759,30.92178 26.75966,45.83935 70.22314,32.59766 87.31399,24.91787 2.72564,-19.37447 10.47905,-32.59766 19.04285,-40.09332 -66.61335,-7.58766 -136.65239,-33.31591 -136.65239,-148.27334 0,-32.76342 11.69471,-59.52292 30.88494,-80.49965 -3.09402,-7.58765 -13.38895,-38.0858 2.94663,-79.39463 0,0 25.17577,-8.06654 82.48871,30.73766 23.92338,-6.64855 49.59641,-9.96355 75.10354,-10.09243 25.4889,0.12432 51.14342,3.44388 75.10368,10.09243 57.27606,-38.8042 82.41495,-30.73766 82.41495,-30.73766 16.37261,41.30883 6.07754,71.80698 3.00203,79.39463 19.22711,20.97673 30.82967,47.73623 30.82967,80.49965 0,115.25218 -70.14952,140.61206 -136.96552,148.03397 10.75531,9.26367 20.35049,27.56988 20.35049,55.5634 0,40.09318 -0.3688,72.45147 -0.3688,82.28601 0,8.02966 5.41453,17.36696 20.62688,14.43869 C 514.12265,551.87827 600,439.5176 600,307.00895 600,141.31339 465.66812,7 299.97244,7"
     style="fill:#1b1817;fill-opacity:1;fill-rule:evenodd;stroke:none;stroke-width:1.84167"
     id="path16" /></svg>
