<svg viewBox="0 0 600 600" xmlns="http://www.w3.org/2000/svg"><path d="M584.142 525.47c0 41.18-33.354 74.533-74.534 74.533H88.534C47.354 600.003 14 566.65 14 525.47V104.396c0-41.18 33.354-74.534 74.534-74.534h421.074c41.18 0 74.534 33.353 74.534 74.534z" fill="#6b6551"/><path d="M584.142 495.728c0 41.18-33.354 74.534-74.534 74.534H88.534c-41.18 0-74.534-33.354-74.534-74.534V74.534C14 33.354 47.354 0 88.534 0h421.074c41.18 0 74.534 33.354 74.534 74.534z" fill="#eae6d2"/><path d="M421.588 140.88c0-5.9-.482-11.8-.722-17.7h-35.401v38.892c-56.833-79.23-173.752-54.185-206.624 24.684-21.071 50.572-19.867 101.506 2.047 151.355 23.12 52.5 89.947 74.895 142.205 60.085 2.77-.482 6.02-1.325 9.512-2.408 5.057-1.566 9.272-3.372 12.041-5.057 7.225-2.89 15.653-7.827 24.202-14.33 6.743-5.177 12.643-10.716 17.099-15.893-1.325 19.747-1.806 39.735-4.937 59.241-3.853 24.082-15.051 44.793-37.93 56.954-50.09 26.49-110.174 6.382-132.812-44.792h-35.16c2.53 33.715 20.23 55.75 47.924 69.958 33.233 17.098 68.995 18.904 105.359 13.004 46.358-7.586 76.58-33.715 87.056-79.952 3.733-16.376 5.78-33.474 5.9-50.331.602-81.157.241-162.433.241-243.71zm-41.541 169.898c-6.623 19.025-17.7 34.197-32.15 44.552-3.612 2.529-21.192 14.93-47.08 16.135-1.566.12-5.9.24-11.078 0-.24.12-.361.12-.602.12-37.688-2.287-66.707-24.322-79.35-60.807-10.596-30.584-10.957-61.65-3.251-92.715 11.198-45.034 43.709-72.487 85.25-73.57.963-.121 1.445-.121 1.445-.121 21.553-1.927 38.41 7.104 43.709 9.994 22.276 11.92 38.892 34.076 46.358 63.697 7.706 31.065 7.345 62.131-3.251 92.715z" fill="#382110"/></svg>