<?xml version="1.0" encoding="UTF-8" standalone="no"?>
<svg
   xmlns:dc="http://purl.org/dc/elements/1.1/"
   xmlns:cc="http://creativecommons.org/ns#"
   xmlns:rdf="http://www.w3.org/1999/02/22-rdf-syntax-ns#"
   xmlns:svg="http://www.w3.org/2000/svg"
   xmlns="http://www.w3.org/2000/svg"
   xmlns:sodipodi="http://sodipodi.sourceforge.net/DTD/sodipodi-0.dtd"
   xmlns:inkscape="http://www.inkscape.org/namespaces/inkscape"
   inkscape:version="1.0beta2 (2b71d25, 2019-12-03)"
   height="600"
   width="600"
   sodipodi:docname="goodreads.svg"
   id="svg1258"
   xml:space="preserve"
   viewBox="0 0 600 600"
   version="1.1"><metadata
     id="metadata1264"><rdf:RDF><cc:Work
         rdf:about=""><dc:format>image/svg+xml</dc:format><dc:type
           rdf:resource="http://purl.org/dc/dcmitype/StillImage" /><dc:title></dc:title></cc:Work></rdf:RDF></metadata><defs
     id="defs1262" /><sodipodi:namedview
     inkscape:current-layer="svg1258"
     inkscape:window-maximized="1"
     inkscape:window-y="23"
     inkscape:window-x="0"
     inkscape:cy="256"
     inkscape:cx="256"
     inkscape:zoom="0.61328125"
     showgrid="false"
     id="namedview1260"
     inkscape:window-height="692"
     inkscape:window-width="1280"
     inkscape:pageshadow="2"
     inkscape:pageopacity="0"
     guidetolerance="10"
     gridtolerance="10"
     objecttolerance="10"
     borderopacity="1"
     inkscape:document-rotation="0"
     bordercolor="#666666"
     pagecolor="#ffffff" /><style
     id="style1244"
     type="text/css">
	.st0{fill:#6B6551;}
	.st1{fill:#EAE6D2;}
	.st2{fill:#382110;}
</style><g
     id="Edges" /><g
     transform="matrix(1.2040929,0,0,1.2040939,-8.636947,-8.0674291)"
     id="g1273"><g
       id="Background_Bottom"><g
         id="g1249"><path
           class="st0"
           d="m 492.3,443.1 c 0,34.2 -27.7,61.9 -61.9,61.9 H 80.7 C 46.5,505 18.8,477.3 18.8,443.1 V 93.4 c 0,-34.2 27.7,-61.9 61.9,-61.9 h 349.7 c 34.2,0 61.9,27.7 61.9,61.9 z"
           id="path1247"
           inkscape:connector-curvature="0" /></g></g><g
       id="Background"><path
         class="st1"
         d="m 492.3,418.4 c 0,34.2 -27.7,61.9 -61.9,61.9 H 80.7 c -34.2,0 -61.9,-27.7 -61.9,-61.9 V 68.6 C 18.8,34.4 46.5,6.7 80.7,6.7 h 349.7 c 34.2,0 61.9,27.7 61.9,61.9 z"
         id="path1252"
         inkscape:connector-curvature="0" /></g><g
       id="Symbol"><path
         class="st2"
         d="m 357.3,123.7 c 0,-4.9 -0.4,-9.8 -0.6,-14.7 -10.5,0 -19.4,0 -29.4,0 0,11.2 0,21.7 0,32.3 -47.2,-65.8 -144.3,-45 -171.6,20.5 -17.5,42 -16.5,84.3 1.7,125.7 19.2,43.6 74.7,62.2 118.1,49.9 2.3,-0.4 5,-1.1 7.9,-2 4.2,-1.3 7.7,-2.8 10,-4.2 6,-2.4 13,-6.5 20.1,-11.9 5.6,-4.3 10.5,-8.9 14.2,-13.2 -1.1,16.4 -1.5,33 -4.1,49.2 -3.2,20 -12.5,37.2 -31.5,47.3 -41.6,22 -91.5,5.3 -110.3,-37.2 -9.5,0 -19,0 -29.2,0 2.1,28 16.8,46.3 39.8,58.1 27.6,14.2 57.3,15.7 87.5,10.8 38.5,-6.3 63.6,-28 72.3,-66.4 3.1,-13.6 4.8,-27.8 4.9,-41.8 0.5,-67.4 0.2,-134.9 0.2,-202.4 z m -34.5,141.1 c -5.5,15.8 -14.7,28.4 -26.7,37 -3,2.1 -17.6,12.4 -39.1,13.4 -1.3,0.1 -4.9,0.2 -9.2,0 -0.2,0.1 -0.3,0.1 -0.5,0.1 -31.3,-1.9 -55.4,-20.2 -65.9,-50.5 -8.8,-25.4 -9.1,-51.2 -2.7,-77 9.3,-37.4 36.3,-60.2 70.8,-61.1 0.8,-0.1 1.2,-0.1 1.2,-0.1 17.9,-1.6 31.9,5.9 36.3,8.3 18.5,9.9 32.3,28.3 38.5,52.9 6.4,25.8 6.1,51.6 -2.7,77 z"
         id="path1255"
         inkscape:connector-curvature="0" /></g></g></svg>
